<?xml version="1.0" standalone="no"?>
<!DOCTYPE svg PUBLIC "-//W3C//DTD SVG 20010904//EN"
 "http://www.w3.org/TR/2001/REC-SVG-20010904/DTD/svg10.dtd">
<svg version="1.0" xmlns="http://www.w3.org/2000/svg"
 width="911.000000pt" height="911.000000pt" viewBox="0 0 911.000000 911.000000"
 preserveAspectRatio="xMidYMid meet">
<metadata>
Created by potrace 1.11, written by Peter Selinger 2001-2013
</metadata>
<g transform="translate(0.000000,911.000000) scale(0.100000,-0.100000)"
fill="#000000" stroke="none">
<path d="M3810 8622 c0 -5 -10 -8 -22 -8 -13 -1 -45 -4 -73 -9 -27 -4 -58 -7
-67 -7 -10 0 -18 -2 -18 -6 0 -7 -21 -10 -87 -14 -13 -1 -23 -5 -23 -8 0 -4
-10 -6 -22 -5 -13 1 -27 0 -33 -4 -10 -6 -20 -8 -65 -15 -14 -2 -33 -7 -42
-11 -9 -4 -22 -4 -28 0 -5 3 -10 1 -10 -5 0 -7 -7 -10 -15 -6 -8 3 -15 1 -15
-5 0 -6 -5 -7 -10 -4 -6 4 -17 1 -25 -5 -8 -7 -15 -10 -15 -7 0 5 -85 -16
-120 -30 -8 -3 -18 -6 -22 -5 -4 1 -20 -3 -35 -9 -15 -6 -37 -13 -48 -15 -37
-9 -50 -12 -55 -14 -3 -1 -8 -2 -12 -1 -5 0 -8 -4 -8 -10 0 -5 -4 -8 -9 -5 -5
3 -26 -2 -47 -11 -22 -9 -46 -18 -55 -19 -9 -2 -29 -9 -45 -15 -16 -7 -38 -14
-49 -16 -10 -2 -22 -7 -25 -11 -3 -4 -12 -8 -20 -10 -8 -2 -29 -10 -47 -19
-17 -8 -37 -16 -45 -17 -7 -1 -23 -8 -35 -14 -13 -7 -23 -10 -23 -6 0 4 -9 -1
-21 -12 -12 -10 -22 -18 -23 -16 0 2 -14 -2 -31 -9 -16 -7 -32 -13 -35 -14
-26 -9 -48 -21 -62 -33 -10 -8 -18 -12 -18 -8 0 4 -10 1 -22 -6 -13 -7 -26
-11 -30 -10 -5 1 -8 -3 -8 -9 0 -5 -4 -7 -10 -4 -5 3 -10 1 -10 -5 0 -6 -4 -8
-10 -5 -5 3 -10 1 -10 -6 0 -7 -3 -9 -6 -6 -4 4 -19 -2 -34 -13 -16 -11 -32
-20 -37 -20 -5 0 -30 -13 -56 -30 -26 -16 -47 -26 -47 -22 0 4 -4 2 -8 -4 -4
-6 -23 -19 -42 -29 -19 -10 -52 -27 -72 -38 -21 -10 -38 -23 -38 -29 0 -5 -4
-7 -9 -4 -5 3 -14 -1 -21 -9 -7 -8 -19 -15 -26 -15 -8 0 -14 -4 -14 -10 0 -5
-4 -10 -9 -10 -10 0 -165 -102 -193 -127 -10 -9 -18 -13 -18 -10 0 4 -8 -1
-18 -10 -10 -10 -29 -25 -42 -33 -12 -8 -32 -23 -44 -32 -11 -10 -50 -41 -86
-69 -36 -28 -68 -56 -72 -62 -4 -7 -8 -8 -8 -4 0 5 -6 2 -13 -5 -8 -7 -47 -42
-88 -78 -67 -58 -326 -317 -389 -387 -71 -79 -160 -192 -160 -203 0 -6 -4 -8
-10 -5 -5 3 -10 2 -10 -3 0 -8 -23 -41 -68 -97 -4 -5 -18 -27 -31 -47 -12 -21
-28 -38 -33 -38 -6 0 -8 -3 -5 -6 4 -4 -7 -24 -24 -45 -17 -22 -28 -39 -24
-39 3 0 -3 -10 -15 -22 -11 -12 -20 -28 -20 -35 0 -7 -4 -13 -9 -13 -5 0 -14
-13 -21 -29 -6 -16 -23 -44 -36 -62 -13 -18 -21 -35 -19 -39 3 -4 -2 -13 -10
-20 -8 -7 -15 -17 -15 -22 0 -5 -7 -16 -15 -25 -8 -8 -13 -18 -10 -23 3 -4 -2
-13 -10 -20 -8 -7 -15 -19 -15 -26 0 -8 -5 -14 -11 -14 -5 0 -7 -4 -4 -10 3
-5 1 -10 -4 -10 -6 0 -11 -3 -10 -7 2 -16 -14 -53 -22 -53 -5 0 -8 -3 -7 -7 2
-10 -14 -48 -58 -140 -19 -40 -34 -77 -34 -83 0 -6 -9 -29 -20 -51 -12 -22
-18 -44 -15 -49 3 -5 1 -11 -4 -14 -12 -8 -60 -147 -63 -183 -1 -7 -4 -13 -8
-13 -3 0 -7 -8 -8 -17 -3 -33 -8 -48 -17 -63 -5 -8 -11 -69 -12 -135 l-2 -120
20 75 c11 41 22 86 25 100 2 14 12 48 21 75 9 28 18 55 19 60 2 6 5 19 8 30 2
11 11 39 19 62 9 22 13 44 10 47 -4 3 -2 6 4 6 5 0 10 6 10 13 1 12 44 132 63
172 5 11 19 43 31 70 12 28 35 77 50 109 16 33 29 65 29 73 0 7 4 13 8 13 5 0
14 16 22 35 8 19 17 35 22 35 4 0 7 3 6 8 -2 8 41 94 52 102 3 3 13 20 21 38
8 17 17 32 21 32 5 0 8 6 8 13 0 11 33 65 76 124 9 12 16 25 16 30 1 4 8 13
17 20 9 7 13 13 9 13 -7 0 17 32 50 66 7 8 10 14 6 14 -4 0 5 14 21 30 16 17
26 30 22 30 -4 0 1 8 10 18 19 20 29 32 83 102 19 25 45 55 57 67 13 12 23 25
23 28 0 3 13 19 29 34 16 16 27 31 25 34 -3 3 4 8 15 12 12 3 19 10 17 14 -3
4 11 20 30 36 19 16 34 34 34 40 0 6 11 18 25 25 14 7 25 19 25 27 0 7 4 13 9
13 4 0 45 35 89 78 44 42 101 95 127 117 25 22 59 51 74 65 16 14 39 32 51 40
12 8 32 24 44 35 12 11 35 29 50 40 16 11 33 25 40 30 45 40 154 115 166 115
6 0 10 4 10 8 0 4 15 16 33 27 17 10 34 21 37 25 9 11 141 90 151 90 5 0 9 5
9 10 0 6 4 10 10 10 5 0 33 14 62 31 75 44 354 189 364 189 5 0 -61 -38 -147
-84 -611 -329 -1081 -726 -1471 -1243 -407 -538 -674 -1196 -744 -1828 -3 -33
-9 -69 -11 -80 -9 -37 -11 -589 -3 -665 5 -41 12 -100 15 -130 71 -653 353
-1323 794 -1890 118 -152 169 -209 336 -376 315 -317 618 -544 1034 -775 58
-32 101 -59 94 -59 -7 0 -29 10 -50 22 -21 12 -59 32 -85 46 -27 13 -50 28
-54 33 -3 5 -10 7 -15 4 -5 -4 -9 -1 -9 4 0 6 -6 11 -14 11 -7 0 -19 7 -26 15
-7 8 -16 13 -20 10 -4 -3 -13 2 -20 10 -7 8 -16 12 -21 9 -5 -3 -9 0 -9 6 0 6
-11 15 -25 20 -14 5 -25 14 -25 20 0 6 -4 9 -9 5 -5 -3 -16 2 -24 10 -9 8 -20
15 -26 15 -6 0 -11 5 -11 11 0 5 -5 7 -10 4 -6 -3 -13 1 -16 9 -3 9 -10 16
-14 16 -11 0 -158 98 -165 111 -4 5 -11 7 -16 4 -5 -4 -9 -2 -9 4 0 5 -15 19
-33 30 -17 11 -45 32 -62 46 -16 14 -40 33 -53 43 -12 9 -28 22 -35 28 -7 6
-40 33 -72 59 -33 27 -64 54 -68 62 -4 7 -15 13 -23 13 -8 0 -12 5 -9 10 3 6
2 10 -4 10 -5 0 -46 36 -90 79 -45 44 -81 77 -81 74 0 -3 -10 7 -22 22 -12 16
-46 53 -75 83 -29 31 -53 59 -53 63 0 4 -9 11 -20 14 -11 3 -20 10 -20 16 0 9
-21 37 -58 75 -13 13 -21 24 -18 24 3 0 -10 16 -29 35 -19 19 -35 38 -35 43 0
5 -12 22 -27 39 -16 16 -37 42 -48 58 -11 16 -26 34 -33 42 -7 7 -10 13 -5 13
4 0 1 6 -7 13 -8 7 -21 24 -29 40 -8 15 -18 27 -23 27 -4 0 -8 7 -8 15 0 8 -4
15 -10 15 -5 0 -10 7 -10 15 0 8 -3 15 -8 15 -4 0 -12 9 -17 19 -17 34 -78
136 -84 141 -4 3 -17 28 -31 55 -14 28 -27 52 -31 55 -10 9 -129 256 -129 268
0 7 -4 12 -10 12 -5 0 -9 3 -9 8 1 4 0 10 -1 15 -1 4 -3 10 -4 15 -1 4 -12 29
-24 56 -12 27 -22 54 -22 61 0 6 -3 15 -7 19 -5 4 -8 11 -8 14 -1 4 -6 16 -12
27 -6 11 -11 22 -11 25 -1 15 -16 66 -22 75 -4 6 -11 24 -15 40 -5 17 -10 37
-12 45 -2 8 -5 21 -5 28 -1 6 -4 12 -8 12 -4 0 -7 6 -7 13 0 6 -7 35 -15 62
-9 28 -16 53 -17 58 0 4 -1 8 -2 10 0 1 -2 11 -4 21 -2 11 -7 31 -11 45 -4 14
-6 32 -5 39 1 6 -3 12 -9 12 -6 0 -10 -30 -10 -77 0 -69 5 -103 26 -178 3 -11
6 -26 6 -32 1 -7 4 -13 8 -13 4 0 7 -6 8 -12 1 -13 9 -48 12 -58 1 -3 2 -8 1
-12 0 -5 3 -8 9 -8 5 0 7 -6 4 -14 -3 -8 -1 -17 5 -21 6 -3 11 -13 11 -21 0
-8 8 -32 18 -53 10 -21 18 -45 16 -54 -1 -10 2 -17 7 -17 5 0 9 -6 9 -13 0 -7
9 -29 20 -50 11 -20 18 -37 15 -37 -3 0 1 -10 9 -22 8 -13 15 -27 15 -31 0
-13 134 -282 143 -285 4 -2 8 -9 8 -16 0 -6 8 -23 17 -36 10 -14 18 -31 20
-39 1 -8 6 -17 11 -20 5 -3 22 -30 38 -58 16 -29 32 -53 37 -53 4 0 7 -5 7
-11 0 -6 10 -25 22 -42 13 -17 28 -39 33 -48 32 -53 81 -119 88 -119 4 0 5 -4
2 -10 -3 -5 -2 -10 4 -10 5 0 13 -9 16 -20 4 -11 11 -18 16 -15 5 4 9 0 9 -7
0 -7 14 -27 30 -45 17 -18 30 -35 30 -38 0 -4 6 -13 13 -21 6 -7 29 -33 49
-56 103 -119 125 -143 145 -164 12 -12 19 -25 15 -29 -4 -4 -1 -5 7 -3 8 1 20
-8 28 -22 7 -14 13 -23 13 -20 0 3 45 -37 99 -90 128 -122 169 -160 175 -160
3 0 21 -16 40 -35 20 -19 38 -35 41 -35 5 0 20 -12 70 -55 13 -11 35 -29 49
-40 15 -11 39 -30 53 -42 14 -13 29 -23 33 -23 6 0 22 -12 67 -50 7 -5 17 -10
23 -10 5 0 10 -4 10 -10 0 -5 5 -10 10 -10 6 0 20 -9 32 -20 12 -11 28 -20 35
-20 7 0 13 -4 13 -10 0 -5 7 -10 15 -10 9 0 18 -7 21 -15 4 -8 10 -13 14 -10
4 2 15 -4 25 -15 10 -11 24 -20 30 -20 7 0 18 -7 25 -15 7 -8 16 -12 21 -9 5
3 9 2 9 -3 0 -7 55 -44 70 -48 3 0 21 -11 40 -23 19 -12 41 -22 48 -22 7 0 10
-4 7 -10 -3 -5 3 -10 14 -10 12 0 21 -5 21 -12 0 -6 3 -9 6 -5 3 3 21 -3 40
-14 62 -34 134 -69 138 -67 2 2 13 -6 25 -16 12 -11 21 -16 21 -13 0 3 24 -6
52 -20 29 -15 58 -26 65 -26 7 0 13 -4 13 -9 0 -5 4 -6 10 -3 6 3 10 1 10 -4
0 -6 9 -11 20 -11 11 0 20 -4 20 -8 0 -4 10 -9 22 -9 13 -1 24 -7 26 -13 2 -5
8 -8 13 -4 5 3 9 0 9 -6 0 -6 4 -9 8 -6 5 3 19 -1 33 -8 13 -7 26 -13 29 -13
12 -3 46 -15 65 -23 11 -4 49 -18 85 -30 36 -12 72 -25 80 -28 8 -3 20 -6 25
-8 6 -1 29 -9 53 -18 23 -8 42 -13 42 -9 0 3 7 0 15 -7 8 -6 19 -9 25 -5 5 3
10 1 10 -6 0 -7 2 -10 6 -7 3 3 25 0 49 -7 24 -8 46 -11 49 -8 3 4 6 1 6 -6 0
-6 6 -11 13 -10 6 2 32 -4 57 -11 25 -8 52 -14 60 -15 8 0 24 -4 35 -8 11 -3
34 -9 50 -12 17 -2 41 -7 55 -10 50 -12 85 -18 103 -19 9 0 17 -3 17 -7 0 -4
9 -5 20 -2 11 3 20 1 20 -3 0 -5 15 -10 33 -11 37 -2 102 -10 102 -13 0 -14
1497 -26 1519 -12 6 3 23 7 39 8 15 1 28 3 30 4 1 1 18 3 37 5 19 2 35 4 35 5
0 1 11 3 25 6 14 2 39 7 55 10 17 3 44 7 60 10 40 6 70 12 70 14 0 3 39 10 67
13 16 1 28 5 28 8 0 3 6 6 13 6 6 0 64 13 127 29 63 15 118 27 123 26 4 -1 7
2 7 6 0 5 6 9 13 10 6 0 23 3 37 7 14 4 31 7 38 7 6 1 12 4 12 8 0 4 6 7 13 8
23 1 56 11 76 22 12 6 21 8 21 4 0 -3 6 -2 13 3 13 11 67 27 80 25 4 -1 7 2 7
8 0 6 3 9 8 8 12 -3 122 35 122 42 0 4 7 7 15 8 8 1 22 3 30 4 8 1 15 5 15 10
0 4 9 8 20 8 11 0 20 5 20 11 0 6 7 9 15 5 8 -3 21 2 30 10 8 8 24 17 36 19
12 2 27 9 33 15 7 5 16 7 19 3 4 -3 7 -1 7 5 0 7 3 11 8 10 4 -1 30 9 57 22
28 13 53 23 58 22 4 -1 7 3 7 9 0 5 4 8 8 5 5 -3 19 4 30 15 12 11 22 17 22
14 0 -5 117 55 205 105 22 13 53 30 68 39 39 22 54 31 120 74 31 20 61 37 65
37 4 0 14 9 22 19 7 11 17 18 21 16 3 -3 19 7 35 20 16 14 35 25 43 25 8 0 11
3 8 7 -4 3 12 18 35 32 24 14 48 29 53 33 6 5 46 36 90 70 44 35 85 67 91 73
6 5 33 28 60 50 27 22 59 50 71 62 13 12 23 20 23 18 0 -8 343 339 367 371 12
16 38 46 58 67 19 21 35 42 35 46 0 5 7 12 16 15 9 4 14 9 11 12 -3 3 5 16 19
29 13 12 24 25 24 29 0 6 24 38 53 68 9 10 17 20 17 23 0 9 73 110 89 122 8 7
11 13 6 13 -5 0 2 11 15 25 13 14 19 25 14 25 -5 0 -4 4 2 8 18 12 83 120 77
126 -4 3 -2 6 3 6 6 0 26 30 45 68 18 37 37 69 42 70 4 2 7 10 7 18 0 8 5 14
10 14 6 0 9 3 8 8 -2 11 52 121 63 127 5 4 7 11 4 16 -4 5 -1 9 5 9 6 0 9 4 5
9 -3 5 4 26 16 45 11 20 17 36 12 36 -4 0 -2 4 5 9 7 4 15 14 16 22 1 8 8 28
16 44 7 17 16 39 20 50 4 11 15 38 23 60 21 53 31 88 29 98 -1 4 2 7 8 7 6 0
9 3 9 8 -3 16 14 72 22 72 5 0 6 7 3 15 -4 8 -2 15 3 15 5 0 9 8 9 18 1 23 47
196 54 202 4 3 7 66 9 140 3 156 -6 167 -24 28 -2 -15 -6 -31 -8 -35 -3 -4 -8
-26 -12 -48 -8 -46 -13 -70 -15 -70 -2 0 -6 -18 -14 -55 -3 -14 -17 -63 -31
-110 -14 -47 -27 -92 -30 -100 -6 -23 -51 -148 -75 -210 -12 -30 -22 -61 -23
-67 0 -7 -4 -13 -9 -13 -4 0 -7 -3 -6 -7 1 -5 -9 -30 -22 -58 -13 -27 -24 -52
-25 -55 -1 -3 -9 -23 -19 -45 -9 -22 -16 -42 -16 -44 1 -2 -2 -7 -7 -10 -4 -3
-22 -33 -38 -66 -17 -33 -34 -63 -38 -66 -5 -3 -9 -9 -9 -12 0 -21 -12 -46
-19 -41 -5 3 -9 2 -10 -3 -2 -27 -9 -47 -17 -52 -5 -3 -19 -24 -31 -46 -29
-54 -41 -73 -74 -117 -16 -21 -26 -38 -23 -38 3 0 -2 -9 -11 -19 -30 -33 -43
-50 -43 -56 0 -3 -4 -11 -10 -18 -48 -59 -58 -75 -52 -82 4 -5 1 -5 -5 -1 -8
4 -13 1 -13 -8 0 -8 -3 -16 -8 -18 -4 -1 -37 -42 -74 -89 -37 -48 -81 -101
-98 -117 -16 -17 -30 -33 -30 -37 0 -6 -293 -299 -356 -355 -22 -19 -64 -55
-94 -79 -37 -30 -31 -22 20 24 126 115 323 312 401 403 41 47 79 90 85 96 54
56 311 426 369 531 15 28 31 55 35 60 10 14 134 260 158 315 165 377 264 748
306 1145 11 98 14 219 11 405 -4 287 -8 345 -41 555 -70 443 -254 939 -494
1331 -24 38 -51 83 -61 101 -88 154 -336 461 -543 671 -78 79 -143 146 -146
150 -13 18 52 -41 128 -115 46 -46 89 -83 95 -83 6 0 8 -3 4 -6 -8 -8 18 -34
34 -34 7 0 10 -3 6 -6 -3 -3 14 -26 39 -51 24 -25 44 -48 44 -52 0 -4 12 -19
28 -33 15 -14 41 -42 57 -63 17 -21 36 -44 43 -51 6 -7 12 -18 12 -24 0 -6 5
-8 10 -5 6 3 10 1 10 -6 0 -6 18 -33 40 -59 22 -26 40 -51 40 -54 0 -4 13 -21
30 -39 16 -18 30 -38 30 -45 0 -7 7 -15 15 -18 8 -4 15 -12 15 -18 0 -7 8 -21
19 -32 10 -11 22 -30 25 -42 4 -12 12 -22 17 -22 5 0 9 -5 9 -10 0 -6 11 -27
23 -48 44 -69 54 -87 55 -96 0 -5 4 -12 9 -15 9 -7 19 -23 59 -102 15 -30 33
-61 40 -69 7 -8 13 -19 12 -23 0 -4 14 -37 31 -72 29 -59 53 -113 56 -125 0
-3 7 -16 15 -30 7 -14 12 -25 10 -25 -2 0 4 -16 12 -35 17 -37 31 -72 32 -80
1 -3 5 -11 9 -17 5 -7 6 -13 2 -13 -3 0 1 -13 10 -30 9 -16 12 -30 8 -30 -4 0
-2 -5 5 -12 7 -7 12 -22 12 -35 0 -13 4 -23 8 -23 7 0 11 -16 14 -57 1 -7 6
-13 11 -13 6 0 8 -2 5 -5 -3 -3 8 -54 24 -113 16 -59 31 -122 33 -140 2 -18 7
-37 10 -42 3 -5 9 -31 12 -56 13 -108 22 -95 21 31 0 72 -3 135 -6 140 -4 6
-8 21 -10 35 -2 13 -9 31 -15 39 -10 12 -9 13 3 6 12 -7 13 -6 3 6 -6 8 -14
32 -19 54 -4 22 -11 51 -17 65 -6 14 -12 36 -14 50 -2 13 -9 30 -15 37 -6 7
-8 13 -5 13 3 0 0 12 -8 27 -8 15 -12 30 -9 35 3 4 0 8 -6 8 -6 0 -9 4 -6 8 3
5 -1 21 -9 35 -8 15 -14 29 -14 30 0 1 -5 16 -11 32 -7 17 -13 37 -15 46 -2 9
-8 25 -13 35 -23 44 -57 118 -57 124 0 12 -119 245 -132 258 -7 8 -11 18 -8
23 4 5 1 9 -4 9 -6 0 -11 7 -11 15 0 8 -4 15 -10 15 -5 0 -10 9 -10 20 0 11
-4 20 -10 20 -5 0 -10 7 -10 15 0 8 -4 15 -10 15 -5 0 -10 5 -10 11 0 6 -14
31 -30 56 -16 24 -30 48 -30 54 0 5 -4 9 -8 9 -5 0 -19 19 -32 43 -13 23 -30
48 -37 55 -7 7 -20 26 -30 42 -9 17 -21 30 -25 30 -4 0 -8 6 -8 13 0 7 -9 19
-19 27 -11 7 -18 17 -16 20 2 4 -12 24 -31 46 -19 21 -44 52 -57 68 -12 16
-30 37 -39 47 -10 11 -18 24 -18 30 0 5 -4 7 -10 4 -5 -3 -10 0 -10 7 0 7 -16
28 -35 47 -19 19 -35 38 -35 42 0 5 -7 9 -17 9 -9 0 -13 3 -10 6 7 7 -278 294
-292 294 -5 0 -12 7 -15 16 -3 8 -10 13 -15 9 -5 -3 -12 4 -16 15 -3 11 -10
20 -14 20 -4 0 -26 17 -48 38 -23 20 -44 38 -48 39 -4 0 -25 17 -47 37 -22 20
-41 36 -43 36 -8 0 -140 103 -143 111 -2 5 -9 9 -16 9 -7 0 -23 9 -36 20 -13
11 -26 20 -30 20 -3 0 -16 9 -28 20 -12 12 -22 18 -22 15 0 -3 -10 3 -22 15
-12 11 -28 20 -35 20 -7 0 -13 5 -13 10 0 6 -6 10 -13 10 -7 0 -23 9 -35 20
-12 12 -22 17 -22 13 0 -4 -4 -3 -8 3 -7 11 -67 45 -77 44 -3 0 -15 9 -27 20
-20 18 -27 21 -44 19 -4 0 -10 4 -13 9 -3 6 -37 26 -75 46 -38 20 -75 41 -83
47 -7 6 -13 9 -13 5 0 -4 -10 0 -23 9 -13 8 -27 12 -30 8 -4 -3 -7 -1 -7 5 0
7 -7 12 -15 12 -8 0 -15 5 -15 10 0 6 -9 10 -19 10 -11 0 -26 7 -35 15 -8 9
-19 14 -23 13 -4 -1 -26 7 -48 19 -22 11 -57 26 -77 32 -21 7 -38 17 -38 23 0
6 -3 9 -6 6 -3 -4 -36 6 -74 22 -38 16 -71 26 -74 22 -3 -3 -6 0 -6 7 0 7 -4
10 -9 6 -5 -3 -12 -1 -16 5 -4 6 -11 8 -16 5 -5 -4 -9 -2 -9 4 0 6 -7 8 -15 5
-8 -4 -15 -1 -15 7 0 7 -3 10 -6 6 -3 -3 -26 3 -51 14 -25 10 -48 17 -52 14
-5 -2 -16 2 -27 9 -10 8 -24 12 -31 9 -7 -3 -13 0 -13 6 0 6 -10 11 -23 11
-13 0 -28 5 -35 12 -7 7 -12 9 -12 6 0 -4 -15 -2 -32 3 -48 15 -71 20 -85 21
-7 1 -13 6 -13 11 0 6 -3 8 -6 4 -3 -3 -26 0 -50 8 -24 7 -44 11 -44 9 0 -2
-11 1 -26 6 -24 9 -65 19 -109 25 -11 2 -20 4 -20 5 0 1 -7 3 -15 5 -8 1 -42
8 -75 15 -33 7 -71 14 -85 15 -14 2 -25 4 -25 5 0 3 -39 9 -73 12 -18 1 -35 5
-37 8 -2 4 -20 6 -39 5 -20 -1 -36 2 -36 6 0 4 -328 8 -730 8 -401 0 -730 -3
-730 -7z m-1230 -392 c-8 -5 -19 -10 -25 -10 -5 0 -3 5 5 10 8 5 20 10 25 10
6 0 3 -5 -5 -10z m-60 -24 c0 -2 -7 -7 -16 -10 -8 -3 -12 -2 -9 4 6 10 25 14
25 6z m-75 -36 c-3 -5 -11 -10 -16 -10 -6 0 -7 5 -4 10 3 6 11 10 16 10 6 0 7
-4 4 -10z m5046 -487 c13 -16 12 -17 -3 -4 -10 7 -18 15 -18 17 0 8 8 3 21
-13z m73 -62 c-2 -3 -12 3 -22 13 -16 17 -16 18 5 5 12 -7 20 -15 17 -18z m46
-31 c0 -5 -2 -10 -4 -10 -3 0 -8 5 -11 10 -3 6 -1 10 4 10 6 0 11 -4 11 -10z
m50 -42 c0 -12 -6 -9 -26 13 -19 22 -19 22 4 8 12 -8 22 -17 22 -21z m128
-106 c14 -12 23 -24 21 -26 -2 -2 -35 26 -74 61 -50 47 -56 54 -21 27 28 -22
61 -49 74 -62z m-129 -5875 c-2 -2 -26 -20 -54 -42 l-50 -38 50 46 c28 25 52
43 54 41 2 -2 2 -5 0 -7z m-119 -92 c-7 -8 -17 -15 -23 -15 -6 0 -2 7 9 15 25
19 30 19 14 0z m-85 -65 c-3 -5 -12 -10 -18 -10 -7 0 -6 4 3 10 19 12 23 12
15 0z m-5057 -438 c17 -9 32 -20 32 -25 0 -5 -12 0 -27 11 -16 11 -45 25 -65
33 -21 7 -38 17 -38 21 0 8 19 0 98 -40z m67 -32 c3 -6 -1 -7 -9 -4 -18 7 -21
14 -7 14 6 0 13 -4 16 -10z"/>
<path d="M0 3820 c0 -11 4 -20 9 -20 5 0 7 9 4 20 -3 11 -7 20 -9 20 -2 0 -4
-9 -4 -20z"/>
</g>
</svg>
