<svg xmlns="http://www.w3.org/2000/svg" width="988.111" height="397.62" viewBox="0 0 988.111 397.62">
  <g id="Path_1" data-name="Path 1" transform="translate(-454.307 -770.771)" fill="#874dc5" stroke-linecap="round" stroke-linejoin="bevel">
    <path d="M 1418.92578125 1152.890991210938 L 1418.496826171875 1152.890991210938 L 469.9999694824219 1152.890991210938 L 468.757080078125 1152.890991210938 L 469.6537170410156 1152.030151367188 C 469.8203430175781 1151.870239257812 486.6293334960938 1135.755249023438 513.2042236328125 1112.0322265625 C 528.8115844726562 1098.099609375 544.6845703125 1084.30712890625 560.3819580078125 1071.037841796875 C 580.0042114257812 1054.450927734375 599.4060668945312 1038.639526367188 618.048828125 1024.042724609375 C 665.5093383789062 986.8822021484375 708.398193359375 957.2716674804688 745.5239868164062 936.03369140625 C 756.2593383789062 929.8924560546875 766.6491088867188 924.3796997070312 776.4046020507812 919.6485595703125 C 786.6770629882812 914.6668090820312 796.5297241210938 910.414306640625 805.6888427734375 907.0093383789062 C 815.3010864257812 903.435791015625 824.4164428710938 900.6964721679688 832.7818603515625 898.867431640625 C 841.5386962890625 896.9526977539062 849.7188110351562 895.9818115234375 857.094970703125 895.9818115234375 C 865.6068115234375 895.9818115234375 873.2989501953125 897.27392578125 879.9578247070312 899.8220825195312 C 883.4033203125 901.1405639648438 886.6439819335938 902.8229370117188 889.5897216796875 904.8224487304688 C 892.5979614257812 906.8644409179688 895.3826904296875 909.2943115234375 897.8668212890625 912.0445556640625 C 901.4948120117188 916.0613403320312 904.6043701171875 920.897705078125 907.1090698242188 926.4193115234375 C 909.6783447265625 932.0830688476562 911.68359375 938.627685546875 913.0692138671875 945.871337890625 C 914.4896850585938 953.2973022460938 915.2991943359375 961.668701171875 915.4752197265625 970.7528076171875 C 915.6557006835938 980.0625610351562 915.1759643554688 990.3849487304688 914.04931640625 1001.433166503906 C 912.1964721679688 1019.605712890625 911.0670776367188 1036.178466796875 910.6928100585938 1050.691284179688 C 910.3350830078125 1064.564453125 910.658203125 1076.894409179688 911.6534423828125 1087.3388671875 C 913.506103515625 1106.78076171875 917.7131958007812 1120.256591796875 924.1580810546875 1127.391967773438 C 925.9945678710938 1129.425170898438 928.0389404296875 1130.963256835938 930.2344360351562 1131.963256835938 C 932.3574829101562 1132.930053710938 934.6801147460938 1133.420288085938 937.1376953125 1133.420288085938 C 942.5474853515625 1133.420288085938 948.7892456054688 1131.069458007812 955.6893310546875 1126.43310546875 C 962.1655883789062 1122.08154296875 969.2310791015625 1115.714111328125 976.6895751953125 1107.507690429688 C 981.8267211914062 1101.855590820312 987.1648559570312 1095.311279296875 992.5557250976562 1088.056762695312 C 997.7353515625 1081.086547851562 1002.986694335938 1073.4306640625 1008.1640625 1065.301879882812 C 1018.153869628906 1049.616821289062 1027.81494140625 1032.240966796875 1036.103149414062 1015.052673339844 C 1044.3876953125 997.8720703125 1051.100952148438 981.292724609375 1055.517211914062 967.1070556640625 C 1057.803100585938 959.7645874023438 1059.47021484375 953.0818481445312 1060.472290039062 947.2442016601562 C 1061.511962890625 941.1875610351562 1061.838623046875 936.0211791992188 1061.443115234375 931.8883056640625 C 1060.908447265625 926.3018188476562 1061.191162109375 920.2133178710938 1062.283447265625 913.7919311523438 C 1063.346313476562 907.5435791015625 1065.153564453125 901.0982055664062 1067.6552734375 894.6348266601562 C 1070.1494140625 888.1907958984375 1073.276000976562 881.8779296875 1076.947875976562 875.8717041015625 C 1080.699584960938 869.7349243164062 1084.943969726562 864.0463256835938 1089.563232421875 858.9638061523438 C 1096.53759765625 851.2902221679688 1104.111694335938 845.24609375 1112.075073242188 840.9994506835938 C 1120.728149414062 836.3849487304688 1129.594116210938 834.0453491210938 1138.426635742188 834.0453491210938 C 1147.133911132812 834.0453491210938 1155.766479492188 836.3359375 1164.08447265625 840.8536987304688 C 1173.089965820312 845.7448120117188 1181.813598632812 853.3026733398438 1190.012939453125 863.3173217773438 C 1208.462646484375 885.85107421875 1224.482055664062 920.91796875 1237.626342773438 967.5440673828125 C 1243.927856445312 989.897216796875 1249.163940429688 1005.826416015625 1253.633911132812 1016.241943359375 C 1255.753540039062 1021.180847167969 1257.721313476562 1024.892822265625 1259.482788085938 1027.274780273438 C 1261.10546875 1029.46923828125 1262.572998046875 1030.581787109375 1263.8447265625 1030.581787109375 C 1265.4873046875 1030.581787109375 1267.035034179688 1028.67236328125 1268.444702148438 1024.906372070312 C 1269.805541992188 1021.270690917969 1271.037353515625 1015.935668945312 1272.21044921875 1008.59619140625 C 1274.425415039062 994.7384643554688 1276.102416992188 975.9364624023438 1278.044311523438 954.1654663085938 C 1279.605102539062 936.6672973632812 1281.374145507812 916.8345947265625 1283.651000976562 897.7724609375 C 1286.257202148438 875.9523315429688 1289.161376953125 858.2061767578125 1292.529052734375 843.5200805664062 C 1294.494262695312 834.9503173828125 1296.661376953125 827.272216796875 1298.97021484375 820.698974609375 C 1301.473754882812 813.5718383789062 1304.234497070312 807.4834594726562 1307.17578125 802.6029663085938 C 1310.337524414062 797.3572998046875 1313.815795898438 793.3269653320312 1317.514404296875 790.6239624023438 C 1321.467163085938 787.7353515625 1325.790893554688 786.2706909179688 1330.365234375 786.2706909179688 C 1333.844482421875 786.2706909179688 1337.548828125 787.11767578125 1341.375732421875 788.7884521484375 C 1345.31591796875 790.5086669921875 1349.50732421875 793.1553344726562 1353.833251953125 796.6549682617188 C 1360.337158203125 801.9166870117188 1366.50341796875 808.053466796875 1372.160400390625 814.8947143554688 C 1377.568603515625 821.4351806640625 1382.655029296875 828.793212890625 1387.278442382812 836.7644653320312 C 1391.684692382812 844.361328125 1395.78662109375 852.715576171875 1399.470336914062 861.59521484375 C 1402.968627929688 870.027587890625 1406.181274414062 879.154541015625 1409.018920898438 888.7224731445312 C 1418.8310546875 921.8046875 1424.675537109375 961.586669921875 1426.390258789062 1006.963317871094 C 1427.063598632812 1024.785034179688 1427.09375 1043.523803710938 1426.479736328125 1062.659057617188 C 1425.988525390625 1077.966552734375 1425.086303710938 1093.560791015625 1423.79833984375 1109.0087890625 C 1421.605102539062 1135.313720703125 1419.016967773438 1152.298461914062 1418.991088867188 1152.466796875 L 1418.92578125 1152.890991210938 Z" stroke="none"/>
    <path d="M 1418.496826171875 1152.390991210938 C 1418.496826171875 1152.390991210938 1459.872680664062 883.0833129882812 1353.518676757812 797.043701171875 C 1344.748901367188 789.948974609375 1337.091430664062 786.7706298828125 1330.365112304688 786.7706298828125 C 1271.462280273438 786.7706298828125 1284.824340820312 1031.081787109375 1263.844604492188 1031.081787109375 C 1258.166625976562 1031.081787109375 1249.968872070312 1013.168823242188 1237.145141601562 967.6796875 C 1208.970458984375 867.7371215820312 1171.508666992188 834.5452880859375 1138.426635742188 834.5452880859375 C 1094.463012695312 834.5452880859375 1058.244995117188 893.2213134765625 1061.940795898438 931.8406982421875 C 1066.33984375 977.808837890625 981.9832763671875 1133.920288085938 937.1377563476562 1133.920288085938 C 915.9562377929688 1133.920288085938 903.5888671875 1099.092407226562 913.5519409179688 1001.382446289062 C 921.333251953125 925.0697631835938 897.3820190429688 896.4818725585938 857.0950317382812 896.4818725585938 C 736.5872192382812 896.4818725585938 469.9999694824219 1152.390991210938 469.9999694824219 1152.390991210938 L 1418.496826171875 1152.390991210938 M 1418.496826171875 1153.390991210938 L 469.9999694824219 1153.390991210938 L 469.3074645996094 1151.669555664062 C 469.4742126464844 1151.509399414062 486.2897033691406 1135.38818359375 512.8712158203125 1111.6591796875 C 528.4819946289062 1097.723510742188 544.3583374023438 1083.928100585938 560.0592041015625 1070.656005859375 C 579.6862182617188 1054.065063476562 599.0929565429688 1038.249755859375 617.7406005859375 1023.649047851562 C 665.219970703125 986.4736938476562 708.1289672851562 956.8495483398438 745.2755737304688 935.5995483398438 C 756.0208129882812 929.4526977539062 766.4207153320312 923.9346923828125 776.1863403320312 919.1986694335938 C 786.4732055664062 914.2099609375 796.340576171875 909.951171875 805.5145874023438 906.5405883789062 C 815.1487426757812 902.9589233398438 824.286865234375 900.2129516601562 832.6751098632812 898.3788452148438 C 841.4668579101562 896.45654296875 849.6829833984375 895.4818115234375 857.094970703125 895.4818115234375 C 865.6680908203125 895.4818115234375 873.4203491210938 896.7849731445312 880.136474609375 899.3549194335938 C 883.6178588867188 900.6871948242188 886.892822265625 902.3875732421875 889.8704833984375 904.40869140625 C 892.911865234375 906.4732055664062 895.7269897460938 908.929443359375 898.2378540039062 911.7093505859375 C 901.9003295898438 915.7643432617188 905.038330078125 920.64404296875 907.564453125 926.2127075195312 C 910.1499633789062 931.9124755859375 912.1673583984375 938.4949340820312 913.5603637695312 945.77734375 C 914.986083984375 953.23095703125 915.7984619140625 961.6306762695312 915.97509765625 970.7432250976562 C 916.1559448242188 980.0729370117188 915.6753540039062 990.4157104492188 914.5468139648438 1001.483947753906 C 912.695068359375 1019.643798828125 911.5665893554688 1036.203979492188 911.1925659179688 1050.704223632812 C 910.8353271484375 1064.557373046875 911.1578369140625 1076.866943359375 912.1512451171875 1087.29150390625 C 913.9933471679688 1106.623901367188 918.157958984375 1120.0029296875 924.5291137695312 1127.056762695312 C 926.3194580078125 1129.0390625 928.3087158203125 1130.536743164062 930.4417114257812 1131.508056640625 C 932.4990844726562 1132.445190429688 934.751953125 1132.920288085938 937.1376953125 1132.920288085938 C 942.4463500976562 1132.920288085938 948.59423828125 1130.598022460938 955.4104614257812 1126.01806640625 C 961.8532104492188 1121.68896484375 968.8880615234375 1115.348022460938 976.319580078125 1107.17138671875 C 981.4456176757812 1101.531494140625 986.773193359375 1095 992.1543579101562 1087.758666992188 C 997.3268432617188 1080.797973632812 1002.571350097656 1073.152099609375 1007.742370605469 1065.033203125 C 1017.721740722656 1049.364501953125 1027.372924804688 1032.006469726562 1035.652709960938 1014.835571289062 C 1043.926879882812 997.6766967773438 1050.630737304688 981.1209716796875 1055.039794921875 966.9584350585938 C 1057.319091796875 959.636962890625 1058.981079101562 952.9755859375 1059.9794921875 947.1595458984375 C 1061.01171875 941.1466674804688 1061.336669921875 936.0247192382812 1060.9453125 931.9359741210938 C 1060.406616210938 926.3057250976562 1060.69091796875 920.1729736328125 1061.790649414062 913.7080688476562 C 1062.859008789062 907.4266967773438 1064.67529296875 900.9487915039062 1067.18896484375 894.4544677734375 C 1069.693969726562 887.982421875 1072.833862304688 881.642578125 1076.521362304688 875.6109619140625 C 1080.289428710938 869.4473266601562 1084.552856445312 863.7333374023438 1089.193237304688 858.6275634765625 C 1096.206298828125 850.9113159179688 1103.82568359375 844.8319702148438 1111.83984375 840.5581665039062 C 1120.566040039062 835.9048461914062 1129.511108398438 833.5453491210938 1138.426635742188 833.5453491210938 C 1147.21826171875 833.5453491210938 1155.931030273438 835.8564453125 1164.323120117188 840.414306640625 C 1173.3857421875 845.3365478515625 1182.1591796875 852.9356689453125 1190.399780273438 863.0005493164062 C 1208.893310546875 885.5878295898438 1224.944580078125 920.7156982421875 1238.107543945312 967.4083251953125 C 1244.403076171875 989.7402954101562 1249.632202148438 1005.649475097656 1254.093505859375 1016.044799804688 C 1256.197875976562 1020.948181152344 1258.146362304688 1024.626586914062 1259.884887695312 1026.9775390625 C 1261.386596679688 1029.008422851562 1262.755859375 1030.081787109375 1263.8447265625 1030.081787109375 C 1265.237426757812 1030.081787109375 1266.666259765625 1028.231567382812 1267.976440429688 1024.73095703125 C 1269.325561523438 1021.126953125 1270.548950195312 1015.823425292969 1271.716796875 1008.517333984375 C 1273.928955078125 994.6766967773438 1275.605346679688 975.8826904296875 1277.54638671875 954.12109375 C 1279.107421875 936.6194458007812 1280.876708984375 916.7828369140625 1283.154418945312 897.7131958007812 C 1285.762939453125 875.8751831054688 1288.669921875 858.1119384765625 1292.041748046875 843.4083251953125 C 1294.011108398438 834.8204345703125 1296.183471679688 827.1242065429688 1298.49853515625 820.533203125 C 1301.01318359375 813.3739624023438 1303.788696289062 807.2545776367188 1306.747680664062 802.344970703125 C 1309.943725585938 797.0420532226562 1313.466918945312 792.9627075195312 1317.219604492188 790.2203369140625 C 1321.259765625 787.267822265625 1325.682495117188 785.7706909179688 1330.365234375 785.7706909179688 C 1333.913696289062 785.7706909179688 1337.685424804688 786.6318359375 1341.57568359375 788.3302001953125 C 1345.557250976562 790.0684204101562 1349.786987304688 792.7384643554688 1354.147705078125 796.2661743164062 C 1360.677612304688 801.5489501953125 1366.867553710938 807.7091674804688 1372.545654296875 814.5760498046875 C 1377.971435546875 821.1376953125 1383.073852539062 828.5185546875 1387.7109375 836.5135498046875 C 1392.128173828125 844.1294555664062 1396.240112304688 852.5036010742188 1399.932250976562 861.403564453125 C 1403.437133789062 869.85205078125 1406.655639648438 878.9956665039062 1409.498291015625 888.580322265625 C 1419.322387695312 921.7025756835938 1425.173706054688 961.5259399414062 1426.889892578125 1006.944458007812 C 1427.563598632812 1024.777709960938 1427.59375 1043.5283203125 1426.979370117188 1062.675170898438 C 1426.487915039062 1077.991088867188 1425.585327148438 1093.593994140625 1424.296630859375 1109.05029296875 C 1422.101806640625 1135.372314453125 1419.51123046875 1152.374145507812 1419.485229492188 1152.542846679688 L 1418.496826171875 1153.390991210938 Z" stroke="none" fill="#707070"/>
  </g>
</svg>
